<?xml version="1.0" encoding="utf-8"?>
<!-- Svg Vector Icons : http://www.onlinewebfonts.com/icon -->
<!DOCTYPE svg PUBLIC "-//W3C//DTD SVG 1.1//EN" "http://www.w3.org/Graphics/SVG/1.1/DTD/svg11.dtd">
<svg version="1.1" xmlns="http://www.w3.org/2000/svg" xmlns:xlink="http://www.w3.org/1999/xlink" x="0px" y="0px" viewBox="0 0 1000 1000" enable-background="new 0 0 1000 1000" xml:space="preserve">
<metadata> Svg Vector Icons : http://www.onlinewebfonts.com/icon </metadata>
<g><g transform="translate(0.000000,512.000000) scale(0.100000,-0.100000)"><path d="M931.2,4989.1c-394.1-86.1-715.4-411.3-799.6-807.3c-42.1-195.1-42.1-7927.2,0-8122.3c84.2-399.8,407.5-723.1,807.3-807.3c195.1-42.1,7927.2-42.1,8122.4,0c399.8,84.2,723.1,407.4,807.3,807.3c42.1,195.1,42.1,7927.2,0,8122.3c-84.2,399.8-407.5,723.1-807.3,807.3C8871.8,5029.3,1114.8,5029.3,931.2,4989.1z M5407.5,3476c849.4-67,1750.3-577.7,2291.7-1298.9c265.9-352,491.6-860.8,593-1325.7c51.7-241,70.8-799.6,36.4-1069.3C8112.4-1949.1,6553.3-3221.2,4803-3091.1c-417,32.5-822.6,139.6-1191.8,315.6l-179.8,86.1l-887.6-279.3c-487.8-153-889.5-277.4-895.3-277.4c-5.7,0,116.7,396,271.6,879.9l281.2,880l-57.4,99.5c-95.6,166.4-221.9,485.9-281.2,711.6C1604.5,289,1784.3,1301,2356.3,2110.2c164.5,231.5,535.6,604.5,769,770.9c220,155,652.3,375,895.3,453.4c244.9,78.4,524.2,133.9,776.7,151.1C5003.8,3500.9,5116.7,3499,5407.5,3476z"/><path d="M4818.3,2940.4c-495.4-55.5-904.8-198.9-1293.1-457.2c-300.3-200.9-606.4-512.7-805.4-824.5c-149.2-233.4-304.2-619.8-371.1-925.9c-51.6-231.5-51.6-839.8,0-1071.3c68.9-319.5,208.5-661.9,376.9-927.8l72.7-114.8l-151.1-516.5c-82.3-283.1-147.3-518.4-143.5-522.2c3.8-3.8,237.2,63.1,520.3,149.2l512.7,155l248.7-124.3c445.7-225.7,769-304.2,1243.4-306.1c346.2,0,550.9,30.6,845.5,124.4c445.7,143.5,780.5,348.1,1115.2,684.8c397.9,401.7,638.9,851.2,759.4,1417.5c47.8,227.6,47.8,801.5,0,1038.7c-107.1,533.7-348.2,994.7-721.2,1379.2c-411.3,424.7-891.4,686.7-1461.5,797.7C5378.8,2932.7,4973.2,2955.7,4818.3,2940.4z M4221.4,1654.9c44-38.3,143.5-235.3,271.6-533.7c107.1-248.7,110.9-221.9-68.9-447.6c-63.1-78.4-118.6-160.7-124.3-183.7C4282.6,423,4435.7,224,4720.7-61c137.7-137.7,317.6-294.6,397.9-350.1c156.9-107.1,359.6-214.3,403.6-214.3c13.4,0,72.7,57.4,128.2,130.1c200.9,250.6,246.8,290.8,323.3,290.8c76.5,0,466.7-179.8,644.6-298.4l107.1-72.7l-7.7-116.7c-5.7-65-28.7-156.9-49.7-206.6c-95.6-218.1-380.7-415.1-596.8-415.1c-394.1,0-964.1,214.2-1415.6,531.8c-225.7,158.8-663.8,593-799.6,792c-200.9,294.6-308,552.8-323.3,780.5c-34.4,476.3,139.7,837.9,434.2,901C4058.8,1710.4,4179.4,1693.2,4221.4,1654.9z"/></g></g>
</svg>